<svg width="24" height="24" viewBox="0 0 24 24" fill="none" xmlns="http://www.w3.org/2000/svg">
  <path
    d="M12.5689 7.81504V10.6025L20.2256 2.94616L21.04 3.76058L13.384 11.4173H16.1714V12.5693H11.417V7.81494L12.5689 7.81504ZM20.0569 11.7092V19.8414C20.0555 19.9601 19.9596 20.056 19.8409 20.0575H4.14489C4.02637 20.0559 3.93061 19.9601 3.92913 19.8414V4.14544C3.93061 4.02678 4.02636 3.93102 4.14489 3.92941H12.2775V2.77734H4.14489C3.78222 2.77788 3.43453 2.92212 3.17821 3.17859C2.92173 3.43506 2.77748 3.78274 2.7771 4.14541V19.8414V19.8413C2.7775 20.204 2.92174 20.5516 3.17821 20.8081C3.43455 21.0646 3.78222 21.2088 4.14489 21.2093H19.8409C20.2036 21.2089 20.5514 21.0647 20.8079 20.8082C21.0643 20.5518 21.2086 20.204 21.209 19.8413V11.709L20.0569 11.7092Z"
    fill="white" />
</svg>